<svg width="103" height="103" viewBox="0 0 103 103" fill="none" xmlns="http://www.w3.org/2000/svg">
<path d="M43.5808 82.5225C60.9452 86.6645 78.3796 75.9456 82.5217 58.5812C86.6637 41.2168 75.9448 23.7824 58.5804 19.6404C41.216 15.4984 23.7816 26.2173 19.6396 43.5816C15.4976 60.946 26.2164 78.3804 43.5808 82.5225Z" fill="url(#paint0_linear_461_1475)"/>
<path d="M57.4239 51.0763C60.7291 56.4062 62.1367 60.2101 59.7432 65.247C56.9956 71.0293 50.197 72.7284 42.3696 69.0089C34.2603 65.1555 32.7577 58.3114 34.382 54.8933C35.8461 51.8121 45.9457 54.5395 44.7835 56.4048C41.6969 59.6554 41.5322 63.7963 44.8898 65.3846C47.3427 66.5451 49.4263 65.3761 50.6678 62.822C52.5769 58.8942 50.3139 56.5759 46.3505 50.0201C42.674 43.9388 41.4643 39.9889 43.6136 35.4658C46.5248 29.3393 53.6192 28.2293 60.8833 31.6811C67.1285 34.6487 71.2099 40.4734 69.1842 44.8889C67.7329 48.0521 57.5107 45.712 59.1253 43.5848C61.4776 40.9115 62.8612 36.9529 59.0518 35.2056C56.5588 34.0623 54.0811 35.1635 52.9481 37.6095C50.9576 41.906 53.9792 45.523 57.4239 51.0763Z" fill="white"/>
<defs>
<linearGradient id="paint0_linear_461_1475" x1="58.5804" y1="19.6404" x2="43.5808" y2="82.5225" gradientUnits="userSpaceOnUse">
<stop stop-color="#383AB5"/>
<stop offset="1" stop-color="#2C1D6A"/>
</linearGradient>
</defs>
</svg>
